<svg xmlns="http://www.w3.org/2000/svg" width="840" height="196" viewBox="0 0 840 196" role="img" aria-labelledby="t d">
<title id="t">SSX 3 decompilation progress</title>
<desc id="d">9,580 of 12,930 functions match (74.1%); 44.4% of code bytes (2026-10-08).</desc>
<style>
  .surface { fill: #fcfcfb; } text { font-family: system-ui, -apple-system, "Segoe UI", sans-serif; fill: #0b0b0b; }
  .ink2 { fill: #52514e; } .muted { fill: #898781; } .track { fill: #c3c2b7; } .num { font-variant-numeric: tabular-nums; }
  .matched { fill: #0ca30c; } .close { fill: #fab219; } .partial { fill: #d03b3b; }
  @media (prefers-color-scheme: dark) {
    .surface { fill: #0d1117; } text { fill: #ffffff; } .ink2 { fill: #c3c2b7; } .track { fill: #45443f; }
  }
</style>
<rect class="surface" width="840" height="196" rx="8"/>
<text x="20" y="34" font-size="14" font-weight="600">Functions</text>
<text x="124" y="34" font-size="14" font-weight="600">74.1% matched</text>
<text x="820" y="34" font-size="13" class="ink2 num" text-anchor="end">9,580 / 12,930 functions</text>
<clipPath id="clip20_44_800"><rect x="20" y="44" width="800" height="20" rx="4"/></clipPath><g clip-path="url(#clip20_44_800)"><rect class="matched" x="20.00" y="44" width="588.28" height="20"><title>Functions · Matched (100%): 9,580 functions (74.1%)</title></rect><rect class="close" x="610.28" y="44" width="42.86" height="20"><title>Functions · Close (90-99%): 698 functions (5.4%)</title></rect><rect class="partial" x="655.15" y="44" width="13.69" height="20"><title>Functions · Partial (&lt;90%): 223 functions (1.7%)</title></rect><rect class="track" x="670.84" y="44" width="149.16" height="20"><title>Functions · Not attempted: 2,429 functions (18.8%)</title></rect></g>
<text x="20" y="96" font-size="14" font-weight="600">Code bytes</text>
<text x="124" y="96" font-size="14" font-weight="600">44.4% matched</text>
<text x="820" y="96" font-size="13" class="ink2 num" text-anchor="end">1.42 / 3.20 MB of code</text>
<clipPath id="clip20_106_800"><rect x="20" y="106" width="800" height="20" rx="4"/></clipPath><g clip-path="url(#clip20_106_800)"><rect class="matched" x="20.00" y="106" width="352.22" height="20"><title>Code bytes · Matched (100%): 1,417,400 bytes (44.4%)</title></rect><rect class="close" x="374.22" y="106" width="71.09" height="20"><title>Code bytes · Close (90-99%): 286,076 bytes (9.0%)</title></rect><rect class="partial" x="447.31" y="106" width="15.21" height="20"><title>Code bytes · Partial (&lt;90%): 61,196 bytes (1.9%)</title></rect><rect class="track" x="464.52" y="106" width="355.48" height="20"><title>Code bytes · Not attempted: 1,430,536 bytes (44.8%)</title></rect></g>
<rect class="matched" x="20" y="162" width="12" height="12" rx="3"/>
<text x="38" y="172" font-size="12"><tspan>Matched (100%)</tspan><tspan class="muted num"> · 9,580</tspan></text>
<rect class="close" x="220" y="162" width="12" height="12" rx="3"/>
<text x="238" y="172" font-size="12"><tspan>Close (90-99%)</tspan><tspan class="muted num"> · 698</tspan></text>
<rect class="partial" x="420" y="162" width="12" height="12" rx="3"/>
<text x="438" y="172" font-size="12"><tspan>Partial (&lt;90%)</tspan><tspan class="muted num"> · 223</tspan></text>
<rect class="track" x="620" y="162" width="12" height="12" rx="3"/>
<text x="638" y="172" font-size="12"><tspan>Not attempted</tspan><tspan class="muted num"> · 2,429</tspan></text>
<text x="820" y="190" font-size="10" class="muted" text-anchor="end">updated 2026-10-08</text>
</svg>
