<svg xmlns="http://www.w3.org/2000/svg" width="840" height="196" viewBox="0 0 840 196" role="img" aria-labelledby="t d">
<title id="t">SSX 3 decompilation progress</title>
<desc id="d">9,161 of 12,930 functions match (70.9%); 43.3% of code bytes (2026-10-08).</desc>
<style>
  .surface { fill: #fcfcfb; } text { font-family: system-ui, -apple-system, "Segoe UI", sans-serif; fill: #0b0b0b; }
  .ink2 { fill: #52514e; } .muted { fill: #898781; } .track { fill: #c3c2b7; } .num { font-variant-numeric: tabular-nums; }
  .matched { fill: #0ca30c; } .close { fill: #fab219; } .partial { fill: #d03b3b; }
  @media (prefers-color-scheme: dark) {
    .surface { fill: #0d1117; } text { fill: #ffffff; } .ink2 { fill: #c3c2b7; } .track { fill: #45443f; }
  }
</style>
<rect class="surface" width="840" height="196" rx="8"/>
<text x="20" y="34" font-size="14" font-weight="600">Functions</text>
<text x="124" y="34" font-size="14" font-weight="600">70.9% matched</text>
<text x="820" y="34" font-size="13" class="ink2 num" text-anchor="end">9,161 / 12,930 functions</text>
<clipPath id="clip20_44_800"><rect x="20" y="44" width="800" height="20" rx="4"/></clipPath><g clip-path="url(#clip20_44_800)"><rect class="matched" x="20.00" y="44" width="562.55" height="20"><title>Functions · Matched (100%): 9,161 functions (70.9%)</title></rect><rect class="close" x="584.55" y="44" width="35.43" height="20"><title>Functions · Close (90-99%): 577 functions (4.5%)</title></rect><rect class="partial" x="621.99" y="44" width="9.40" height="20"><title>Functions · Partial (&lt;90%): 153 functions (1.2%)</title></rect><rect class="track" x="633.38" y="44" width="186.62" height="20"><title>Functions · Not attempted: 3,039 functions (23.5%)</title></rect></g>
<text x="20" y="96" font-size="14" font-weight="600">Code bytes</text>
<text x="124" y="96" font-size="14" font-weight="600">43.3% matched</text>
<text x="820" y="96" font-size="13" class="ink2 num" text-anchor="end">1.38 / 3.20 MB of code</text>
<clipPath id="clip20_106_800"><rect x="20" y="106" width="800" height="20" rx="4"/></clipPath><g clip-path="url(#clip20_106_800)"><rect class="matched" x="20.00" y="106" width="344.14" height="20"><title>Code bytes · Matched (100%): 1,384,884 bytes (43.3%)</title></rect><rect class="close" x="366.14" y="106" width="69.57" height="20"><title>Code bytes · Close (90-99%): 279,956 bytes (8.8%)</title></rect><rect class="partial" x="437.71" y="106" width="13.34" height="20"><title>Code bytes · Partial (&lt;90%): 53,672 bytes (1.7%)</title></rect><rect class="track" x="453.05" y="106" width="366.95" height="20"><title>Code bytes · Not attempted: 1,476,672 bytes (46.2%)</title></rect></g>
<rect class="matched" x="20" y="162" width="12" height="12" rx="3"/>
<text x="38" y="172" font-size="12"><tspan>Matched (100%)</tspan><tspan class="muted num"> · 9,161</tspan></text>
<rect class="close" x="220" y="162" width="12" height="12" rx="3"/>
<text x="238" y="172" font-size="12"><tspan>Close (90-99%)</tspan><tspan class="muted num"> · 577</tspan></text>
<rect class="partial" x="420" y="162" width="12" height="12" rx="3"/>
<text x="438" y="172" font-size="12"><tspan>Partial (&lt;90%)</tspan><tspan class="muted num"> · 153</tspan></text>
<rect class="track" x="620" y="162" width="12" height="12" rx="3"/>
<text x="638" y="172" font-size="12"><tspan>Not attempted</tspan><tspan class="muted num"> · 3,039</tspan></text>
<text x="820" y="190" font-size="10" class="muted" text-anchor="end">updated 2026-10-08</text>
</svg>
